:SAMPLES-PER-SECOND 30
:FRAME-RANGE 1-564
:FULLY-SPECIFIED
:DEGREES
406
root  11.1067 21.1692 -100.541 -155.14 -18.5771 -178.377
RightUpLeg  -93.4267 -2.49397 -5.49199
RightLeg  114.084 -0.340934 1.50466
RightFoot  -37.2856 1.52769 7.73187
RightToes  1.21801e-010 1.2921e-014 -6.02303e-014
Spine  17.3992 8.93206 5.65556
Spine1  45.0264 -1.20146 23.3919
HEad  -29.7507 -30.9238 -4.05854
LeftShoulder1  9.7269 -36.5326 -17.5259
LeftArm  -42.171 -63.6686 -23.6793
LeftForeArm  1.67456 -8.55829 -1.70551
LeftHand  -0.0590303 -0.0178153 1.281
RightShoulder  0.0309963 -1.47094 -8.63939
RightArm  -49.6762 58.7107 18.6561
RightForeArm  10.5833 8.9239 -3.56478
RightHand  -0.811042 2.03616 -12.8317
LeftUpLeg  -93.9091 2.45171 5.86969
LeftLeg  114.236 -1.88652 3.1544
LeftFoot  -37.3254 -1.7935 -8.74035
LeftToes  1.70735e-010 3.74918e-011 3.68705e-011
407
root  11.1322 21.4587 -100.527 -154.295 -18.6438 -178.304
RightUpLeg  -93.3203 -2.40612 -5.14124
RightLeg  112.588 -0.11245 1.09048
RightFoot  -37.4648 1.48096 7.48178
RightToes  1.21801e-010 1.2921e-014 -6.02303e-014
Spine  17.6345 8.19153 5.94651
Spine1  44.631 -1.0815 22.1374
HEad  -30.3482 -29.9792 -3.32228
LeftShoulder1  9.36938 -35.5718 -17.2237
LeftArm  -42.8108 -63.5342 -22.7394
LeftForeArm  1.52609 -8.44004 -1.61931
LeftHand  -0.0586837 0.244692 1.30732
RightShoulder  0.0431109 -0.330824 -8.45861
RightArm  -49.9892 59.774 18.3489
RightForeArm  10.7874 8.06461 -3.79163
RightHand  -0.8456 1.66785 -14.0337
LeftUpLeg  -93.9557 2.00327 6.15253
LeftLeg  112.801 -2.15921 3.96257
LeftFoot  -37.2432 -1.81624 -8.86512
LeftToes  1.70735e-010 3.74918e-011 3.68705e-011
408
root  11.17 21.8082 -100.51 -153.156 -18.3452 -178.618
RightUpLeg  -93.3716 -2.19275 -5.31791
RightLeg  110.816 0.0527679 0.768724
RightFoot  -37.4864 1.44992 7.34278
RightToes  1.21801e-010 1.2921e-014 -6.02303e-014
Spine  17.6034 7.73237 5.67944
Spine1  44.1275 -0.788457 21.0538
HEad  -30.9129 -28.9934 -2.44335
LeftShoulder1  9.09295 -34.8994 -16.9271
LeftArm  -43.3579 -64.1831 -21.277
LeftForeArm  0.666436 -6.60171 -1.4462
LeftHand  -0.0697602 0.210522 1.5535
RightShoulder  0.0598171 0.483727 -8.15079
RightArm  -50.4502 61.1947 17.6735
RightForeArm  11.146 6.26259 -4.26589
RightHand  -0.760823 1.1941 -13.5226
LeftUpLeg  -93.9076 1.81923 5.88351
LeftLeg  111.037 -2.29531 4.6354
LeftFoot  -37.1295 -1.79506 -8.81023
LeftToes  1.70735e-010 3.74918e-011 3.68705e-011
409
root  11.2149 22.274 -100.479 -152.411 -18.0178 -178.639
RightUpLeg  -92.9459 -1.70953 -5.21844
RightLeg  108.658 0.261673 0.272605
RightFoot  -37.1041 1.39481 7.20323
RightToes  1.21801e-010 1.2921e-014 -6.02303e-014
Spine  17.8557 7.31007 5.65475
Spine1  43.3397 -0.369385 19.9103
HEad  -30.992 -27.8899 -1.89531
LeftShoulder1  8.87702 -34.3131 -16.7296
LeftArm  -44.0548 -64.2343 -19.9729
LeftForeArm  0.670947 -5.76015 -1.32109
LeftHand  -0.0616525 1.0847 1.52538
RightShoulder  0.10037 1.52625 -7.45107
RightArm  -51.2762 62.9982 16.1541
RightForeArm  11.2937 3.52812 -4.87705
RightHand  -0.772031 1.1284 -13.851
LeftUpLeg  -93.4485 2.08658 5.64512
LeftLeg  109.017 -2.23423 4.98556
LeftFoot  -36.5939 -1.73727 -8.73113
LeftToes  1.70735e-010 3.74918e-011 3.68705e-011
410
root  11.2954 22.8964 -100.416 -151.772 -17.9681 -178.799
RightUpLeg  -92.0949 -1.37023 -5.12834
RightLeg  105.899 0.49879 -0.459181
RightFoot  -36.3007 1.30663 7.01951
RightToes  1.21801e-010 1.2921e-014 -6.02303e-014
Spine  18.1391 6.30253 5.14639
Spine1  42.043 -0.222104 18.1366
HEad  -30.0423 -25.6314 -1.3029
LeftShoulder1  8.36202 -32.6253 -16.436
LeftArm  -43.9075 -64.4992 -18.5409
LeftForeArm  2.18224 -4.16577 -1.61041
LeftHand  -0.070071 2.03194 2.08609
RightShoulder  0.15493 3.64117 -7.13911
RightArm  -51.3528 64.8129 16.0817
RightForeArm  12.8185 0.544478 -5.52294
RightHand  -0.583949 -0.291339 -13.3096
LeftUpLeg  -92.4652 1.93075 5.56902
LeftLeg  106.203 -2.08596 5.39313
LeftFoot  -35.9357 -1.65291 -8.56757
LeftToes  1.70735e-010 3.74918e-011 3.68705e-011
411
root  11.3615 23.6629 -100.367 -151.369 -17.8312 -178.89
RightUpLeg  -90.7312 -1.00258 -5.0632
RightLeg  102.711 0.56137 -0.857449
RightFoot  -35.1405 1.21583 6.90329
RightToes  1.21801e-010 1.2921e-014 -6.02303e-014
Spine  18.6785 4.90628 4.53343
Spine1  40.4613 -0.191699 15.5664
HEad  -28.9556 -22.136 -0.476656
LeftShoulder1  7.41431 -30.1168 -15.3341
LeftArm  -42.9673 -64.9991 -16.932
LeftForeArm  2.91896 -1.76069 -2.25547
LeftHand  -0.0804718 2.90934 3.1327
RightShoulder  0.247506 6.33631 -6.66563
RightArm  -50.747 67.1924 17.4865
RightForeArm  16.0127 -2.3487 -6.1281
RightHand  -0.440925 -1.94671 -14.6883
LeftUpLeg  -90.9239 1.92643 5.36374
LeftLeg  102.925 -1.85246 5.80424
LeftFoot  -35.0273 -1.55236 -8.40088
LeftToes  1.70735e-010 3.74918e-011 3.68705e-011
412
root  11.4303 24.5713 -100.319 -151.102 -17.5278 -179.22
RightUpLeg  -88.9725 -0.773238 -5.17097
RightLeg  99.1102 0.537007 -1.09651
RightFoot  -33.5131 1.03025 6.42033
RightToes  1.21801e-010 1.2921e-014 -6.02303e-014
Spine  19.4344 3.7027 3.95979
Spine1  38.4837 0.347892 12.6559
HEad  -27.9448 -19.4316 0.830078
LeftShoulder1  6.48105 -28.5244 -13.3927
LeftArm  -42.0331 -65.5026 -16.717
LeftForeArm  2.60027 1.13566 -2.3806
LeftHand  -0.0669262 3.48851 3.07824
RightShoulder  0.454493 7.9621 -4.94855
RightArm  -48.8312 69.8184 19.811
RightForeArm  19.5239 -4.79317 -6.12918
RightHand  -0.268109 -3.53695 -16.1987
LeftUpLeg  -88.9289 2.01174 4.79252
LeftLeg  99.1924 -1.52471 6.19276
LeftFoot  -33.431 -1.36098 -7.99613
LeftToes  1.70735e-010 3.74918e-011 3.68705e-011
413
root  11.4764 25.6257 -100.283 -151.031 -17.0045 -179.243
RightUpLeg  -86.5912 -0.358846 -5.01657
RightLeg  94.6788 0.439527 -1.1371
RightFoot  -31.7708 0.854707 5.94078
RightToes  1.21801e-010 1.2921e-014 -6.02303e-014
Spine  20.5925 2.54611 3.94151
Spine1  35.7959 1.28598 9.04747
HEad  -26.6923 -16.8616 2.49801
LeftShoulder1  5.4697 -27.1594 -10.7811
LeftArm  -39.6893 -65.312 -18.5826
LeftForeArm  1.34935 3.54227 -2.55598
LeftHand  -0.0368376 4.6899 2.23073
RightShoulder  0.770347 8.89315 -2.31792
RightArm  -44.6234 72.1684 25.8792
RightForeArm  23.645 -4.79051 -6.01724
RightHand  -0.129738 -4.57015 -16.7104
LeftUpLeg  -86.3395 2.24468 4.51532
LeftLeg  94.8502 -1.07578 6.51646
LeftFoot  -31.8693 -1.25851 -8.0006
LeftToes  1.70735e-010 3.74918e-011 3.68705e-011
